<svg xmlns="http://www.w3.org/2000/svg" width="95.474" height="133.72" viewBox="0 0 95.474 133.72"><defs><style>.a{fill:#01a7db;}</style></defs><g transform="translate(-82.5 -13)"><path class="a" d="M96.945,92.873v50.543A3.247,3.247,0,0,0,102.228,146l28.037-22.066L158.329,146a3.338,3.338,0,0,0,2.036.715,2.983,2.983,0,0,0,1.376-.33,3.253,3.253,0,0,0,1.788-2.972V92.873a45.144,45.144,0,0,0,14.445-33.265c0-25.7-21.406-46.609-47.764-46.609S82.5,33.911,82.5,59.581A45.16,45.16,0,0,0,96.945,92.873Zm59.981,43.747-24.708-19.48a3.186,3.186,0,0,0-3.99,0l-24.68,19.48V98.156a48.346,48.346,0,0,0,53.377,0ZM130.237,19.6c22.7,0,41.189,17.939,41.189,39.978s-18.462,39.978-41.189,39.978S89.048,81.62,89.048,59.581,107.538,19.6,130.237,19.6Z"/><path class="a" d="M177.667,121.752l9.3,6.576-3.549,10.62a3.556,3.556,0,0,0,1.238,3.935,3.468,3.468,0,0,0,4.1.055l9.41-6.658,9.41,6.658a3.556,3.556,0,0,0,4.127-.055,3.542,3.542,0,0,0,1.238-3.935l-3.549-10.62,9.3-6.576a3.478,3.478,0,0,0-2.009-6.328H205.1l-3.577-10.7a3.5,3.5,0,0,0-6.658,0l-3.577,10.7H179.7a3.435,3.435,0,0,0-3.329,2.421A3.486,3.486,0,0,0,177.667,121.752Zm15.848.275a3.52,3.52,0,0,0,3.329-2.421l1.348-4.017,1.348,4.017a3.52,3.52,0,0,0,3.329,2.421h4.072l-3.219,2.256a3.472,3.472,0,0,0-1.293,3.962l1.266,3.824-3.467-2.449a3.548,3.548,0,0,0-4.045,0l-3.467,2.449,1.266-3.824a3.42,3.42,0,0,0-1.293-3.935l-3.219-2.256h4.045Z" transform="translate(-67.928 -64.73)"/><path class="a" d="M159.3,123.792c20.223,0,36.7-16.068,36.7-35.8s-16.453-35.8-36.7-35.8S122.6,68.268,122.6,88C122.6,107.751,139.081,123.792,159.3,123.792Zm0-64.988c16.591,0,30.1,13.1,30.1,29.192s-13.509,29.192-30.1,29.192S129.2,104.092,129.2,88,142.713,58.8,159.3,58.8Z" transform="translate(-29.067 -28.414)"/></g></svg>