<svg xmlns="http://www.w3.org/2000/svg" width="14.564" height="16" viewBox="0 0 14.564 16"><defs><style>.a{fill:#01a7db;}</style></defs><g transform="translate(-3.1 -0.95)"><path class="a" d="M17.518,2.8l-1.7-1.7a.518.518,0,0,0-.733.733L15.054,1.8l-1,1-1.1-1.1H3.9a.81.81,0,0,0-.8.8V16.151a.81.81,0,0,0,.8.8H16.12a.81.81,0,0,0,.8-.8V5.662l-1.1-1.1,1-1-.033-.033a.515.515,0,0,0,.7-.033A.459.459,0,0,0,17.518,2.8ZM7.362,13.986a.9.9,0,0,1-.9.9H6.2a.9.9,0,0,1-.9-.9V8.659a.9.9,0,0,1,.9-.9h.266a.9.9,0,0,1,.9.9Zm3.6,0a.9.9,0,0,1-.9.9H9.793a.9.9,0,0,1-.9-.9V8.659a.9.9,0,0,1,.9-.9h.266a.9.9,0,0,1,.9.9Zm.033-8.724a.186.186,0,0,1-.2.166H5.131a.157.157,0,0,1-.166-.166V3.5a.3.3,0,0,1,.3-.3h4.5a1.265,1.265,0,0,1,1.265,1.265v.8Zm3.6,8.724a.9.9,0,0,1-.9.9h-.266a.9.9,0,0,1-.9-.9V8.659a.9.9,0,0,1,.9-.9h.266a.9.9,0,0,1,.9.9Z"/></g></svg>