<svg xmlns="http://www.w3.org/2000/svg" width="24" height="24" viewBox="0 0 24 24">
  <g id="Group_825" data-name="Group 825" transform="translate(4 -381)">
    <path id="Path_2011" data-name="Path 2011" d="M0,0H24V24H0Z" transform="translate(-4 381)" fill="none"/>
    <path id="Path_2012" data-name="Path 2012" d="M10.09,15.59,11.5,17l5-5-5-5L10.09,8.41s4.352,1.943,2.58,2.59S3,11,3,11v2h9.67ZM19,3H5A2,2,0,0,0,3,5V9H5V5H19V19H5V15H3v4a2,2,0,0,0,2,2H19a2.006,2.006,0,0,0,2-2V5A2.006,2.006,0,0,0,19,3Z" transform="translate(-4 381)" fill="#01a7db"/>
  </g>
</svg>
